<?xml version="1.0" encoding="utf-8"?>
<!-- Generator: Adobe Illustrator 25.4.1, SVG Export Plug-In . SVG Version: 6.00 Build 0)  -->
<svg version="1.1" id="Layer_1" xmlns="http://www.w3.org/2000/svg" xmlns:xlink="http://www.w3.org/1999/xlink" x="0px" y="0px"
	 viewBox="0 0 512 512" style="enable-background:new 0 0 512 512;" xml:space="preserve">
<style type="text/css">
	.st0{fill:#FFFFFF;}
</style>
<g>
	<g>
		<circle class="st0" cx="58.2" cy="221.1" r="11.6"/>
	</g>
</g>
<g>
	<g>
		<circle class="st0" cx="453.8" cy="221.1" r="11.6"/>
	</g>
</g>
<g>
	<g>
		<path class="st0" d="M151.3,314.2c-7,0-11.6,4.7-11.6,11.6v93.1c0,7,4.7,11.6,11.6,11.6c7,0,11.6-4.7,11.6-11.6v-93.1
			C162.9,318.8,158.3,314.2,151.3,314.2z"/>
	</g>
</g>
<g>
	<g>
		<path class="st0" d="M221.1,314.2c-7,0-11.6,4.7-11.6,11.6v93.1c0,7,4.7,11.6,11.6,11.6c7,0,11.6-4.7,11.6-11.6v-93.1
			C232.7,318.8,228.1,314.2,221.1,314.2z"/>
	</g>
</g>
<g>
	<g>
		<path class="st0" d="M290.9,314.2c-7,0-11.6,4.7-11.6,11.6v93.1c0,7,4.7,11.6,11.6,11.6s11.6-4.7,11.6-11.6v-93.1
			C302.5,318.8,297.9,314.2,290.9,314.2z"/>
	</g>
</g>
<g>
	<g>
		<path class="st0" d="M360.7,314.2c-7,0-11.6,4.7-11.6,11.6v93.1c0,7,4.7,11.6,11.6,11.6s11.6-4.7,11.6-11.6v-93.1
			C372.4,318.8,367.7,314.2,360.7,314.2z"/>
	</g>
</g>
<g>
	<g>
		<path class="st0" d="M477.1,162.9h-38.4L410.8,71c-3.5-14-17.5-24.4-32.6-24.4h-29.1V34.9c0-7-4.7-11.6-11.6-11.6H174.5
			c-7,0-11.6,4.7-11.6,11.6v11.6h-18.6c-15.1,0-27.9,8.1-32.6,22.1l-38.4,94.3H34.9C15.1,162.9,0,178,0,197.8v46.5
			c0,19.8,15.1,34.9,34.9,34.9h1.2l19.8,178c2.3,18.6,17.5,31.4,34.9,31.4h330.5c17.5,0,32.6-12.8,34.9-31.4l19.8-178h1.2
			c19.8,0,34.9-15.1,34.9-34.9v-46.5C512,178,496.9,162.9,477.1,162.9z M186.2,46.5h139.6v23.3H186.2V46.5z M489.9,244.4h-1.2
			c0,7-4.7,11.6-11.6,11.6h-11.6H93.1c-7,0-11.6,4.7-11.6,11.6s4.7,11.6,11.6,11.6h359.6L432.9,455c-1.2,5.8-5.8,10.5-11.6,10.5
			H90.8c-5.8,0-10.5-4.7-11.6-10.5L58.2,266.5C57,260.7,52.4,256,46.5,256H34.9c-7,0-11.6-4.7-11.6-11.6v-46.5
			c0-7,4.7-11.6,11.6-11.6h46.5H384c7,0,11.6-4.7,11.6-11.6s-4.7-11.6-11.6-11.6H98.9l33.7-86.1c2.3-4.7,5.8-7,11.6-7h18.6v11.6
			c0,7,4.7,11.6,11.6,11.6h162.9c7,0,11.6-4.7,11.6-11.6V69.8h29.1c4.7,0,9.3,3.5,11.6,8.1L420.1,178c1.2,4.7,5.8,8.1,11.6,8.1h46.5
			c7,0,11.6,4.7,11.6,11.6L489.9,244.4L489.9,244.4z"/>
	</g>
</g>
</svg>
